<?xml version="1.0" encoding="UTF-8" standalone="no"?>
<!-- Generator: Adobe Illustrator 19.0.0, SVG Export Plug-In . SVG Version: 6.00 Build 0)  -->

<svg
   xmlns:dc="http://purl.org/dc/elements/1.1/"
   xmlns:cc="http://creativecommons.org/ns#"
   xmlns:rdf="http://www.w3.org/1999/02/22-rdf-syntax-ns#"
   xmlns:svg="http://www.w3.org/2000/svg"
   xmlns="http://www.w3.org/2000/svg"
   xmlns:sodipodi="http://sodipodi.sourceforge.net/DTD/sodipodi-0.dtd"
   xmlns:inkscape="http://www.inkscape.org/namespaces/inkscape"
   version="1.1"
   id="Laag_1"
   x="0px"
   y="0px"
   viewBox="0 0 163 133"
   xml:space="preserve"
   inkscape:version="0.91 r13725"
   sodipodi:docname="logoDDC.svg"
   width="163"
   height="133"><metadata
     id="metadata25"><rdf:RDF><cc:Work
         rdf:about=""><dc:format>image/svg+xml</dc:format><dc:type
           rdf:resource="http://purl.org/dc/dcmitype/StillImage" /><dc:title></dc:title></cc:Work></rdf:RDF></metadata><defs
     id="defs23" /><sodipodi:namedview
     pagecolor="#ffffff"
     bordercolor="#666666"
     borderopacity="1"
     objecttolerance="10"
     gridtolerance="10"
     guidetolerance="10"
     inkscape:pageopacity="0"
     inkscape:pageshadow="2"
     inkscape:window-width="1440"
     inkscape:window-height="897"
     id="namedview21"
     showgrid="false"
     inkscape:zoom="3.6305324"
     inkscape:cx="95.941141"
     inkscape:cy="91.57597"
     inkscape:window-x="-8"
     inkscape:window-y="-8"
     inkscape:window-maximized="1"
     inkscape:current-layer="Laag_1" /><style
     type="text/css"
     id="style3">
	.st0{fill:#004A99;stroke:#004A99;stroke-width:0.25;}
	.st1{fill:#004A99;}
</style><path
     class="st0"
     d="m 0.9,0.6 c 0,0 8.4,3.3 21.6,17.3 13.7,14.5 21.2,26.6 21.8,42.5 0.5,14.5 -4.2,22.5 -9.9,27.1 C 26,94.2 13.7,94.1 5.2,85.2 -3.7,75.8 0.5,63.2 3,59.7 c 7.6,-10.9 19.2,-7.5 21.9,-5.6 2.7,1.9 5.9,3.8 6.1,9.4 0.2,5.5 -3.1,10.1 -6.3,10.9 -3.2,0.8 -10.9,-5 -12.8,-7.6 -1.9,-2.7 -1.8,7.6 2.3,11.5 3.1,2.9 4.9,3.2 7.7,3.2 3.1,0 7.5,-2 10.1,-8 1.6,-3.8 1.9,-8.6 1,-13.3 C 32.1,55.6 27.3,48.2 23.3,44.5 21.2,42.6 16.2,38.4 12.5,37 6.8,34.7 7.2,34.9 1.7,33.7 L 0.9,0.6 Z"
     id="path5"
     inkscape:connector-curvature="0"
     style="fill:#004a99;stroke:#004a99;stroke-width:0.25" /><path
     class="st0"
     d="m 3.9,92.8 1.9,15.5 c 0,0 5.9,6.3 13,6.3 9.7,0 12.6,-5.4 12.6,-5.4 L 35,93.6 c 0,0 -5.4,7 -15.3,6.9 -9,0 -15.8,-7.7 -15.8,-7.7 z"
     id="path7"
     inkscape:connector-curvature="0"
     style="fill:#004a99;stroke:#004a99;stroke-width:0.25" /><path
     class="st0"
     d="m 7,114.7 1.3,12.4 c 0,0 3.7,5.3 9.1,5.4 6.6,0.1 9.6,-3.9 9.6,-3.9 l 2.9,-12.8 c 0,0 -4.9,5.4 -11.5,5.3 -6.1,0 -11.4,-6.4 -11.4,-6.4 z"
     id="path9"
     inkscape:connector-curvature="0"
     style="fill:#004a99;stroke:#004a99;stroke-width:0.25" /><circle
     class="st1"
     cx="20.900002"
     cy="64.5"
     r="10.6"
     id="circle11"
     style="fill:#004a99" /><g
     id="g13"
     transform="translate(-18,-14)"><path
       class="st1"
       d="m 74.4,64.1 17.3,0 c 11.4,0 15.5,8.4 15.5,17.1 0,10.5 -5.6,17.2 -17.5,17.2 l -15.3,0 0,-34.3 z m 10.5,25.5 4.1,0 c 6.6,0 7.5,-5.3 7.5,-8.5 0,-2.2 -0.7,-8.2 -8.3,-8.2 l -3.4,0 0,16.7 z"
       id="path15"
       inkscape:connector-curvature="0"
       style="fill:#004a99" /><path
       class="st1"
       d="m 111.7,64.1 17.3,0 c 11.4,0 15.5,8.4 15.5,17.1 0,10.5 -5.6,17.2 -17.5,17.2 l -15.3,0 0,-34.3 z m 10.6,25.5 4.1,0 c 6.6,0 7.5,-5.3 7.5,-8.5 0,-2.2 -0.7,-8.2 -8.3,-8.2 l -3.4,0 0,16.7 z"
       id="path17"
       inkscape:connector-curvature="0"
       style="fill:#004a99" /><path
       class="st1"
       d="m 170.6,76.9 c -0.2,-1.2 -1.2,-5 -5.5,-5 -4.9,0 -6.5,4.8 -6.5,9.4 0,4.6 1.6,9.4 6.5,9.4 3.6,0 4.9,-2.5 5.6,-5.7 l 10.4,0 c 0,6.9 -5.6,14.3 -15.6,14.3 -11.1,0 -17.4,-7.8 -17.4,-18 0,-10.8 6.8,-18 17.4,-18 9.4,0 14.6,5 15.5,13.6 l -10.4,0 z"
       id="path19"
       inkscape:connector-curvature="0"
       style="fill:#004a99" /></g></svg>